<svg xmlns="http://www.w3.org/2000/svg" viewBox="0 0 240 360" role="img" aria-labelledby="title desc">
  <title id="title">Generic book cover</title>
  <desc id="desc">A simple illustrated placeholder cover for books without artwork.</desc>
  <defs>
    <linearGradient id="bg" x1="0" x2="1" y1="0" y2="1">
      <stop offset="0%" stop-color="#eff6ff" />
      <stop offset="100%" stop-color="#dbeafe" />
    </linearGradient>
    <linearGradient id="spine" x1="0" x2="0" y1="0" y2="1">
      <stop offset="0%" stop-color="#1d4ed8" />
      <stop offset="100%" stop-color="#1e40af" />
    </linearGradient>
  </defs>
  <rect width="240" height="360" rx="20" fill="url(#bg)" />
  <rect x="24" y="20" width="34" height="320" rx="10" fill="url(#spine)" />
  <rect x="70" y="44" width="138" height="12" rx="6" fill="#93c5fd" />
  <rect x="70" y="70" width="116" height="12" rx="6" fill="#bfdbfe" />
  <rect x="70" y="106" width="124" height="124" rx="18" fill="#ffffff" opacity="0.85" />
  <path d="M112 140h40c10 0 18 8 18 18v38c0 10-8 18-18 18h-40c-10 0-18-8-18-18v-38c0-10 8-18 18-18Zm0 10c-4 0-8 4-8 8v38c0 4 4 8 8 8h40c4 0 8-4 8-8v-38c0-4-4-8-8-8Zm20 4c3 0 5 2 5 5v36c0 3-2 5-5 5s-5-2-5-5v-36c0-3 2-5 5-5Z" fill="#2563eb"/>
  <rect x="70" y="256" width="124" height="10" rx="5" fill="#93c5fd" />
  <rect x="70" y="276" width="108" height="10" rx="5" fill="#bfdbfe" />
  <rect x="70" y="296" width="88" height="10" rx="5" fill="#bfdbfe" />
</svg>
